<svg width="5002" height="1751" viewBox="0 0 5002 1751" fill="none" xmlns="http://www.w3.org/2000/svg">
<path d="M3548.5 931L3635 774L3807.5 717.5L3983.5 774L4083 931L4093 1318.5H3845V973H3790.5L3784.5 1318.5H3548.5V931Z" fill="#126702"/>
<path d="M349.863 504.486H0V1341.67H399.844C584.771 1326.67 639.333 1172.98 643.498 1098.01C648.496 988.052 583.105 910.581 549.785 885.591C594.767 850.604 606.013 779.381 606.013 748.143C601.015 543.221 433.164 500.321 349.863 504.486Z" fill="white"/>
<path d="M349.831 548.258H43.7012V1297.97H262.366V748.181C347.332 738.185 364.409 773.172 362.327 791.914C362.327 816.905 320.676 827.317 299.851 829.4V1029.32C389.816 1019.33 403.977 1054.31 399.812 1073.06C399.812 1103.04 333.171 1106.38 299.851 1104.29V1297.97C539.757 1312.96 595.569 1166.77 593.486 1091.8C598.484 986.84 520.598 914.784 481.03 891.876C551.003 836.897 560.166 756.511 556.001 723.191C556.001 593.241 418.555 552.423 349.831 548.258Z" fill="#126702"/>
<path d="M1287.85 1098.04C1336.88 804.401 1111.97 685.695 962.028 691.944C693.385 704.439 621.446 939.767 631.859 1048.06C641.855 1267.98 823.451 1347.94 912.999 1360.44C1057.94 1380.43 1173.31 1293.8 1212.88 1247.98L1094.18 1104.29L1287.85 1098.04Z" fill="white"/>
<path d="M1249.43 1054.08C1259.42 814.176 1074.49 741.704 980.78 735.456C740.875 730.458 680.897 937.462 680.896 1041.59C680.896 1181.54 805.848 1270.67 868.323 1297.74C978.28 1342.72 1101.57 1283.16 1149.46 1247.76L1037.01 1104.06C1022.01 1134.05 984.944 1137.39 968.284 1135.3C913.306 1135.3 895.398 1060.33 893.316 1022.85C883.32 922.884 947.46 897.894 980.78 897.894C1030.76 897.894 1047.42 939.544 1049.5 960.37H943.295C923.303 985.36 934.965 1033.26 943.295 1054.08H1249.43Z" fill="#126702"/>
<path d="M993.279 1093.39C993.279 1096.84 977.987 1099.63 974.537 1099.63C971.086 1099.63 955.794 1096.83 955.794 1093.38C955.794 1089.93 971.086 1091.85 974.537 1091.85C977.987 1091.85 993.279 1089.94 993.279 1093.39Z" fill="#126702"/>
<path d="M1599.32 498.258H1305.69V1060.54C1330.68 1320.44 1574.33 1368.76 1693.04 1360.43L1686.79 1054.29C1651.8 1054.29 1618.07 1037.63 1605.57 1029.3H1686.79V723.172H1599.32V498.258Z" fill="white"/>
<path d="M1549.36 548.258H1343.19V1035.57C1343.19 1260.48 1547.28 1316.71 1649.32 1316.71V1098.05C1624.33 1098.05 1597.26 1089.72 1586.84 1085.55C1556.85 1075.56 1549.36 1014.75 1549.36 985.59H1643.07V766.924H1549.36V548.258Z" fill="#126702"/>
<path d="M1999.17 498.258H1705.54V1060.54C1730.53 1320.44 1974.18 1368.76 2092.88 1360.43L2086.64 1054.29C2051.65 1054.29 2017.91 1037.63 2005.42 1029.3H2086.64V723.172H1999.17V498.258Z" fill="white" stroke="white" stroke-width="0.346154"/>
<path d="M1949.11 548.258H1742.94V1035.57C1742.94 1260.48 1947.03 1316.71 2049.07 1316.71V1098.05C2024.08 1098.05 1997.01 1089.72 1986.59 1085.55C1956.6 1075.56 1949.11 1014.75 1949.11 985.59H2042.82V766.924H1949.11V548.258Z" fill="#126702"/>
<path d="M2761.37 1098C2806.35 783.121 2563.53 696.071 2436.49 691.906C2296.55 691.906 2199.09 775.208 2167.85 816.858C2087.88 916.82 2092.88 1045.94 2105.37 1098C2140.36 1287.93 2324.04 1352.07 2411.5 1360.4C2551.45 1365.4 2648.91 1287.51 2680.15 1247.94L2561.44 1098H2761.37Z" fill="white"/>
<path d="M2717.64 1054.38C2717.64 799.476 2530.22 735.75 2436.5 735.75C2261.57 735.75 2176.19 877.362 2155.36 948.169C2120.38 1048.13 2165.77 1148.09 2192.85 1185.58C2252.82 1280.54 2359.45 1312.61 2405.27 1316.78C2480.24 1326.77 2578.11 1275.13 2617.68 1248.05L2498.98 1104.36C2473.99 1129.35 2446.92 1135.6 2436.5 1135.6C2381.53 1135.6 2359.45 1064.79 2355.29 1029.39C2340.29 924.428 2403.18 898.188 2436.5 898.188C2486.48 898.188 2507.31 939.838 2511.48 960.664H2405.27C2385.27 985.654 2396.94 1033.55 2405.27 1054.38H2717.64Z" fill="#126702"/>
<path d="M2459.16 1091.51C2459.16 1094.96 2447.32 1104.01 2440.41 1104.01C2433.51 1104.01 2421.67 1094.96 2421.67 1091.51C2421.67 1088.06 2433.51 1091.51 2440.41 1091.51C2447.32 1091.51 2459.16 1088.06 2459.16 1091.51Z" fill="#126702"/>
<path d="M2786.33 972.874V1341.48L3086.21 1341.48V1029.1C3081.21 989.115 3117.45 1004.11 3136.19 1016.6L3179.92 1035.35V704.227C2865.05 644.25 2786.33 858.334 2786.33 972.874Z" fill="white"/>
<path d="M2836.33 991.875V1298.01H3036.25V1029.36C3036.25 924.402 3098.73 939.813 3129.97 960.638V741.971C2890.06 701.986 2834.25 891.913 2836.33 991.875Z" fill="#126702"/>
<path d="M3173.72 723.206L3167.47 1341.72H3467.35V723.205H3448.61C3423.62 723.205 3429.87 710.71 3436.12 704.462C3461.11 674.474 3463.19 625.326 3461.11 604.5C3456.11 499.541 3363.23 477.466 3317.41 479.549C3247.44 474.551 3200.79 527.448 3186.21 554.521C3156.23 619.496 3186.21 681.555 3204.96 704.463C3214.95 719.457 3204.96 723.206 3198.71 723.206H3173.72Z" fill="white"/>
<path d="M3423.64 766.906H3217.47V1291.71H3423.64V766.906Z" fill="#126702"/>
<path d="M3417.39 623.219C3412.39 548.248 3348.67 525.34 3317.43 523.258C3237.46 528.256 3217.47 591.981 3217.47 623.219C3217.47 703.189 3284.11 723.181 3317.43 723.181C3397.4 723.181 3417.39 656.54 3417.39 623.219Z" fill="#126702"/>
<path d="M3824.63 721.569C3861.62 719.719 3920.18 730.131 3972.03 767.994C4022.85 805.107 4069.04 869.898 4081.09 980.52V1318.1H3846.95V989.409L3846.5 987.128C3845.83 983.793 3844.83 979.733 3843.44 975.869C3842.74 973.945 3841.79 971.612 3840.5 969.264C3839.39 967.245 3837.11 963.474 3833.13 960.234C3828.61 956.554 3820.05 952.364 3809.68 955.538C3801.08 958.171 3796.58 964.428 3794.81 967.257C3791.11 973.164 3789.21 980.656 3787.91 987.128L3787.46 989.409V1318.1H3553.32V979.521C3554.32 935.381 3569.23 869.08 3609.97 815.015C3649.89 762.034 3715.64 719.261 3822.94 721.594L3823.78 721.611L3824.63 721.569Z" stroke="white" stroke-width="47"/>
<path d="M4389.52 715.367H4162.98V1096.91C4167.74 1297.22 4351.76 1343.33 4443.17 1341.34C4638.71 1346.11 4703.5 1180.37 4711.45 1096.91V715.367H4472.98V1073.07C4477.75 1120.76 4447.15 1132.68 4431.25 1132.68C4397.86 1132.68 4389.52 1092.94 4389.52 1073.07V715.367Z" fill="white"/>
<path d="M4371.41 128.841C4240.45 151.292 4168.73 236.418 4149.24 276.175V173.275C4146.9 161.582 4137.55 161.582 4135.21 161.582C4125.85 161.582 4123.52 169.377 4123.52 173.275V287.868H4109.48C4102 287.868 4097.01 297.222 4095.45 301.9C4094.67 358.806 4093.58 476.361 4095.45 491.329C4097.32 506.296 4107.15 511.597 4111.82 512.376H4137.55C4145.03 540.44 4189 584.874 4210.04 603.583C4249.33 633.517 4397.91 639.442 4467.29 638.662C4558.97 638.662 4631.78 615.276 4656.72 603.583C4701.62 577.39 4725.32 531.865 4731.56 512.376C4741.69 513.156 4762.9 513.779 4766.64 510.038C4770.38 506.296 4771.32 497.565 4771.32 493.667V304.238L4766.64 290.207H4743.25V175.614C4743.25 162.517 4735.46 159.243 4731.56 159.243C4722.2 159.243 4719.87 170.157 4719.87 175.614V276.175C4684.32 190.113 4556.94 142.093 4497.7 128.841L4486 119.487H4443.91V56.3438H4425.2V119.487H4383.1L4371.41 128.841Z" fill="white"/>
<path d="M4376.13 226.92C4245.17 225.049 4185.92 294.74 4172.67 329.82C4159.42 364.899 4160.98 395.301 4160.98 395.301C4157.24 442.074 4171.89 477.153 4179.69 488.846C4209.62 556.199 4318.45 573.037 4369.12 573.037H4523.47C4617.01 571.166 4670.02 522.366 4684.83 498.201C4714.77 462.653 4708.22 382.049 4701.2 346.19C4676.88 260.128 4585.05 230.817 4542.18 226.92C4499.3 223.022 4376.13 226.92 4376.13 226.92Z" stroke="#126402" stroke-width="8"/>
<path d="M4382.17 240.256C4257.82 238.52 4201.56 303.179 4188.98 335.725C4176.39 368.271 4177.87 396.478 4177.87 396.478C4174.32 439.873 4188.24 472.419 4195.64 483.268C4224.06 545.757 4327.4 561.38 4375.51 561.38H4522.08C4610.9 559.644 4661.24 514.368 4675.3 491.947C4703.73 458.967 4697.51 384.183 4690.85 350.913C4667.75 271.066 4580.56 243.872 4539.84 240.256C4499.13 236.639 4382.17 240.256 4382.17 240.256Z" fill="#136503"/>
<path d="M4055.72 390.688C4055.72 349.528 4077.55 318.97 4088.46 308.836L4086.12 484.233C4061.8 459.912 4055.72 411.736 4055.72 390.688Z" fill="white"/>
<path d="M4808.78 390.688C4808.78 349.528 4786.95 318.97 4776.04 308.836L4778.38 484.233C4802.7 459.912 4808.78 411.736 4808.78 390.688Z" fill="white"/>
<circle cx="4434.6" cy="32.7408" r="32.7408" fill="white"/>
<circle cx="4350.12" cy="392.862" r="45.5654" fill="white"/>
<circle cx="4524.11" cy="392.862" r="45.5654" fill="white"/>
<ellipse cx="59.4294" cy="160.576" rx="59.4294" ry="160.576" transform="matrix(0.67132 -0.741167 -0.741167 -0.67132 4093.07 775.172)" fill="white"/>
<ellipse cx="59.4294" cy="160.576" rx="59.4294" ry="160.576" transform="matrix(-0.907882 0.419226 0.419226 0.907882 4804.74 687.289)" fill="white"/>
<path d="M4956.39 1138.52C4957.97 1139.59 4960.13 1139.18 4961.13 1137.55C4967.44 1127.22 4971.18 1115.5 4972.02 1103.39C4972.93 1090.13 4970.32 1076.86 4964.46 1064.93C4958.59 1052.99 4949.68 1042.82 4938.62 1035.44C4927.56 1028.06 4914.75 1023.74 4901.48 1022.9C4888.21 1022.06 4874.96 1024.75 4863.06 1030.68C4851.16 1036.62 4841.04 1045.59 4833.73 1056.69C4826.41 1067.79 4822.16 1080.63 4821.4 1093.9C4820.71 1106.02 4822.95 1118.11 4827.92 1129.15C4828.7 1130.9 4830.79 1131.58 4832.5 1130.71L4860.1 1116.74C4861.81 1115.88 4862.48 1113.8 4861.77 1112.02C4859.78 1106.97 4858.89 1101.52 4859.21 1096.06C4859.58 1089.45 4861.7 1083.05 4865.35 1077.52C4868.99 1071.99 4874.03 1067.52 4879.96 1064.57C4885.89 1061.61 4892.49 1060.27 4899.1 1060.69C4905.71 1061.11 4912.09 1063.26 4917.6 1066.94C4923.11 1070.62 4927.55 1075.68 4930.47 1081.63C4933.4 1087.57 4934.69 1094.18 4934.24 1100.79C4933.86 1106.24 4932.3 1111.54 4929.69 1116.3C4928.77 1117.98 4929.17 1120.13 4930.75 1121.2L4956.39 1138.52Z" fill="white"/>
<path d="M3800.33 381.634C3798.61 380.804 3796.53 381.524 3795.78 383.282C3791.03 394.417 3789.02 406.548 3789.95 418.653C3790.96 431.909 3795.46 444.663 3802.99 455.622C3810.51 466.581 3820.8 475.357 3832.81 481.061C3844.82 486.765 3858.12 489.194 3871.38 488.104C3884.63 487.013 3897.35 482.441 3908.27 474.849C3919.18 467.258 3927.9 456.918 3933.53 444.876C3939.17 432.833 3941.52 419.516 3940.35 406.272C3939.28 394.179 3935.32 382.539 3928.81 372.332C3927.78 370.72 3925.61 370.349 3924.05 371.45L3898.75 389.264C3897.19 390.365 3896.83 392.518 3897.78 394.175C3900.49 398.892 3902.15 404.153 3902.63 409.598C3903.21 416.196 3902.04 422.831 3899.23 428.83C3896.43 434.83 3892.09 439.981 3886.65 443.763C3881.21 447.545 3874.87 449.823 3868.27 450.366C3861.67 450.909 3855.04 449.699 3849.06 446.857C3843.07 444.016 3837.95 439.644 3834.2 434.184C3830.45 428.724 3828.21 422.37 3827.7 415.766C3827.28 410.315 3828.06 404.854 3829.96 399.758C3830.63 397.967 3829.93 395.902 3828.2 395.072L3800.33 381.634Z" fill="white"/>
</svg>
