<svg width="5002" height="1751" viewBox="0 0 5002 1751" fill="none" xmlns="http://www.w3.org/2000/svg">
<path d="M3548.5 931L3635 774L3807.5 717.5L3983.5 774L4083 931L4093 1318.5H3845V973H3790.5L3784.5 1318.5H3548.5V931Z" fill="#126702"/>
<path d="M349.863 504.486H0V1341.67H399.844C584.771 1326.67 639.333 1172.98 643.498 1098.01C648.496 988.052 583.105 910.581 549.785 885.591C594.767 850.604 606.013 779.381 606.013 748.143C601.015 543.221 433.164 500.321 349.863 504.486Z" fill="white"/>
<path d="M349.831 548.258H43.7012V1297.97H262.366V748.181C347.332 738.185 364.409 773.172 362.327 791.914C362.327 816.905 320.676 827.317 299.851 829.4V1029.32C389.816 1019.33 403.977 1054.31 399.812 1073.06C399.812 1103.04 333.171 1106.38 299.851 1104.29V1297.97C539.757 1312.96 595.569 1166.77 593.486 1091.8C598.484 986.84 520.598 914.784 481.03 891.876C551.003 836.897 560.166 756.511 556.001 723.191C556.001 593.241 418.555 552.423 349.831 548.258Z" fill="#126702"/>
<path d="M1287.85 1098.04C1336.88 804.401 1111.97 685.695 962.028 691.944C693.385 704.439 621.446 939.767 631.859 1048.06C641.855 1267.98 823.451 1347.94 912.999 1360.44C1057.94 1380.43 1173.31 1293.8 1212.88 1247.98L1094.18 1104.29L1287.85 1098.04Z" fill="white"/>
<path d="M1249.43 1054.08C1259.42 814.176 1074.49 741.704 980.78 735.456C740.875 730.458 680.897 937.462 680.896 1041.59C680.896 1181.54 805.848 1270.67 868.323 1297.74C978.28 1342.72 1101.57 1283.16 1149.46 1247.76L1037.01 1104.06C1022.01 1134.05 984.944 1137.39 968.284 1135.3C913.306 1135.3 895.398 1060.33 893.316 1022.85C883.32 922.884 947.46 897.894 980.78 897.894C1030.76 897.894 1047.42 939.544 1049.5 960.37H943.295C923.303 985.36 934.965 1033.26 943.295 1054.08H1249.43Z" fill="#126702"/>
<path d="M993.279 1093.39C993.279 1096.84 977.987 1099.63 974.537 1099.63C971.086 1099.63 955.794 1096.83 955.794 1093.38C955.794 1089.93 971.086 1091.85 974.537 1091.85C977.987 1091.85 993.279 1089.94 993.279 1093.39Z" fill="#126702"/>
<path d="M1599.32 498.258H1305.69V1060.54C1330.68 1320.44 1574.33 1368.76 1693.04 1360.43L1686.79 1054.29C1651.8 1054.29 1618.07 1037.63 1605.57 1029.3H1686.79V723.172H1599.32V498.258Z" fill="white"/>
<path d="M1549.36 548.258H1343.19V1035.57C1343.19 1260.48 1547.28 1316.71 1649.32 1316.71V1098.05C1624.33 1098.05 1597.26 1089.72 1586.84 1085.55C1556.85 1075.56 1549.36 1014.75 1549.36 985.59H1643.07V766.924H1549.36V548.258Z" fill="#126702"/>
<path d="M1999.17 498.258H1705.54V1060.54C1730.53 1320.44 1974.18 1368.76 2092.88 1360.43L2086.64 1054.29C2051.65 1054.29 2017.91 1037.63 2005.42 1029.3H2086.64V723.172H1999.17V498.258Z" fill="white" stroke="white" stroke-width="0.346154"/>
<path d="M1949.11 548.258H1742.94V1035.57C1742.94 1260.48 1947.03 1316.71 2049.07 1316.71V1098.05C2024.08 1098.05 1997.01 1089.72 1986.59 1085.55C1956.6 1075.56 1949.11 1014.75 1949.11 985.59H2042.82V766.924H1949.11V548.258Z" fill="#126702"/>
<path d="M2761.37 1098C2806.35 783.121 2563.53 696.071 2436.49 691.906C2296.55 691.906 2199.09 775.208 2167.85 816.858C2087.88 916.82 2092.88 1045.94 2105.37 1098C2140.36 1287.93 2324.04 1352.07 2411.5 1360.4C2551.45 1365.4 2648.91 1287.51 2680.15 1247.94L2561.44 1098H2761.37Z" fill="white"/>
<path d="M2717.64 1054.38C2717.64 799.476 2530.22 735.75 2436.5 735.75C2261.57 735.75 2176.19 877.362 2155.36 948.169C2120.38 1048.13 2165.77 1148.09 2192.85 1185.58C2252.82 1280.54 2359.45 1312.61 2405.27 1316.78C2480.24 1326.77 2578.11 1275.13 2617.68 1248.05L2498.98 1104.36C2473.99 1129.35 2446.92 1135.6 2436.5 1135.6C2381.53 1135.6 2359.45 1064.79 2355.29 1029.39C2340.29 924.428 2403.18 898.188 2436.5 898.188C2486.48 898.188 2507.31 939.838 2511.48 960.664H2405.27C2385.27 985.654 2396.94 1033.55 2405.27 1054.38H2717.64Z" fill="#126702"/>
<path d="M2459.16 1091.51C2459.16 1094.96 2447.32 1104.01 2440.41 1104.01C2433.51 1104.01 2421.67 1094.96 2421.67 1091.51C2421.67 1088.06 2433.51 1091.51 2440.41 1091.51C2447.32 1091.51 2459.16 1088.06 2459.16 1091.51Z" fill="#126702"/>
<path d="M2786.33 972.874V1341.48L3086.21 1341.48V1029.1C3081.21 989.115 3117.45 1004.11 3136.19 1016.6L3179.92 1035.35V704.227C2865.05 644.25 2786.33 858.334 2786.33 972.874Z" fill="white"/>
<path d="M2836.33 991.875V1298.01H3036.25V1029.36C3036.25 924.402 3098.73 939.813 3129.97 960.638V741.971C2890.06 701.986 2834.25 891.913 2836.33 991.875Z" fill="#126702"/>
<path d="M3173.72 723.206L3167.47 1341.72H3467.35V723.205H3448.61C3423.62 723.205 3429.87 710.71 3436.12 704.462C3461.11 674.474 3463.19 625.326 3461.11 604.5C3456.11 499.541 3363.23 477.466 3317.41 479.549C3247.44 474.551 3200.79 527.448 3186.21 554.521C3156.23 619.496 3186.21 681.555 3204.96 704.463C3214.95 719.457 3204.96 723.206 3198.71 723.206H3173.72Z" fill="white"/>
<path d="M3423.64 766.906H3217.47V1291.71H3423.64V766.906Z" fill="#126702"/>
<path d="M3417.39 623.219C3412.39 548.248 3348.67 525.34 3317.43 523.258C3237.46 528.256 3217.47 591.981 3217.47 623.219C3217.47 703.189 3284.11 723.181 3317.43 723.181C3397.4 723.181 3417.39 656.54 3417.39 623.219Z" fill="#126702"/>
<path d="M3824.63 721.569C3861.62 719.719 3920.18 730.131 3972.03 767.994C4022.85 805.107 4069.04 869.898 4081.09 980.52V1318.1H3846.95V989.409L3846.5 987.128C3845.83 983.793 3844.83 979.733 3843.44 975.869C3842.74 973.945 3841.79 971.612 3840.5 969.264C3839.39 967.245 3837.11 963.474 3833.13 960.234C3828.61 956.554 3820.05 952.364 3809.68 955.538C3801.08 958.171 3796.58 964.428 3794.81 967.257C3791.11 973.164 3789.21 980.656 3787.91 987.128L3787.46 989.409V1318.1H3553.32V979.521C3554.32 935.381 3569.23 869.08 3609.97 815.015C3649.89 762.034 3715.64 719.261 3822.94 721.594L3823.78 721.611L3824.63 721.569Z" stroke="white" stroke-width="47"/>
<path d="M4389.52 715.367H4162.98V1096.91C4167.74 1297.22 4351.76 1343.33 4443.17 1341.34C4638.71 1346.11 4703.5 1180.37 4711.45 1096.91V715.367H4472.98V1073.07C4477.75 1120.76 4447.15 1132.68 4431.25 1132.68C4397.86 1132.68 4389.52 1092.94 4389.52 1073.07V715.367Z" fill="#126702"/>
<path d="M4371.41 128.841C4240.45 151.292 4168.73 236.418 4149.24 276.175V173.275C4146.9 161.582 4137.55 161.582 4135.21 161.582C4125.85 161.582 4123.52 169.377 4123.52 173.275V287.868H4109.48C4102 287.868 4097.01 297.222 4095.45 301.9C4094.67 358.806 4093.58 476.361 4095.45 491.329C4097.32 506.296 4107.15 511.597 4111.82 512.376H4137.55C4145.03 540.44 4189 584.874 4210.04 603.583C4249.33 633.517 4397.91 639.442 4467.29 638.662C4558.97 638.662 4631.78 615.276 4656.72 603.583C4701.62 577.39 4725.32 531.865 4731.56 512.376C4741.69 513.156 4762.9 513.779 4766.64 510.038C4770.38 506.296 4771.32 497.565 4771.32 493.667V304.238L4766.64 290.207H4743.25V175.614C4743.25 162.517 4735.46 159.243 4731.56 159.243C4722.2 159.243 4719.87 170.157 4719.87 175.614V276.175C4684.32 190.113 4556.94 142.093 4497.7 128.841L4486 119.487H4443.91V56.3438H4425.2V119.487H4383.1L4371.41 128.841Z" fill="#126702"/>
<path d="M4376.13 226.92C4245.17 225.049 4185.92 294.74 4172.67 329.82C4159.42 364.899 4160.98 395.301 4160.98 395.301C4157.24 442.074 4171.89 477.153 4179.69 488.846C4209.62 556.199 4318.45 573.037 4369.12 573.037H4523.47C4617.01 571.166 4670.02 522.366 4684.83 498.201C4714.77 462.653 4708.22 382.049 4701.2 346.19C4676.88 260.128 4585.05 230.817 4542.18 226.92C4499.3 223.022 4376.13 226.92 4376.13 226.92Z" stroke="#126402" stroke-width="8"/>
<path d="M4382.17 240.256C4257.82 238.52 4201.56 303.179 4188.98 335.725C4176.39 368.271 4177.87 396.478 4177.87 396.478C4174.32 439.873 4188.24 472.419 4195.64 483.268C4224.06 545.757 4327.4 561.38 4375.51 561.38H4522.08C4610.9 559.644 4661.24 514.368 4675.3 491.947C4703.73 458.967 4697.51 384.183 4690.85 350.913C4667.75 271.066 4580.56 243.872 4539.84 240.256C4499.13 236.639 4382.17 240.256 4382.17 240.256Z" fill="white"/>
<path d="M4055.72 390.688C4055.72 349.528 4077.55 318.97 4088.46 308.836L4086.12 484.233C4061.8 459.912 4055.72 411.736 4055.72 390.688Z" fill="#126702"/>
<path d="M4808.78 390.688C4808.78 349.528 4786.95 318.97 4776.04 308.836L4778.38 484.233C4802.7 459.912 4808.78 411.736 4808.78 390.688Z" fill="#126702"/>
<circle cx="4434.6" cy="32.7408" r="32.7408" fill="white"/>
<circle cx="4350.12" cy="392.862" r="45.5654" fill="#126702"/>
<circle cx="4524.11" cy="392.862" r="45.5654" fill="#126702"/>
<ellipse cx="59.4294" cy="160.576" rx="59.4294" ry="160.576" transform="matrix(0.67132 -0.741167 -0.741167 -0.67132 4093.07 775.172)" fill="#126702"/>
<ellipse cx="59.4294" cy="160.576" rx="59.4294" ry="160.576" transform="matrix(-0.907882 0.419226 0.419226 0.907882 4804.74 687.289)" fill="#126702"/>
<path d="M4956.39 1138.52C4957.97 1139.59 4960.13 1139.18 4961.13 1137.55C4967.44 1127.22 4971.18 1115.5 4972.02 1103.39C4972.93 1090.13 4970.32 1076.86 4964.46 1064.93C4958.59 1052.99 4949.68 1042.82 4938.62 1035.44C4927.56 1028.06 4914.75 1023.74 4901.48 1022.9C4888.21 1022.06 4874.96 1024.75 4863.06 1030.68C4851.16 1036.62 4841.04 1045.59 4833.73 1056.69C4826.41 1067.79 4822.16 1080.63 4821.4 1093.9C4820.71 1106.02 4822.95 1118.11 4827.92 1129.15C4828.7 1130.9 4830.79 1131.58 4832.5 1130.71L4860.1 1116.74C4861.81 1115.88 4862.48 1113.8 4861.77 1112.02C4859.78 1106.97 4858.89 1101.52 4859.21 1096.06C4859.58 1089.45 4861.7 1083.05 4865.35 1077.52C4868.99 1071.99 4874.03 1067.52 4879.96 1064.57C4885.89 1061.61 4892.49 1060.27 4899.1 1060.69C4905.71 1061.11 4912.09 1063.26 4917.6 1066.94C4923.11 1070.62 4927.55 1075.68 4930.47 1081.63C4933.4 1087.57 4934.69 1094.18 4934.24 1100.79C4933.86 1106.24 4932.3 1111.54 4929.69 1116.3C4928.77 1117.98 4929.17 1120.13 4930.75 1121.2L4956.39 1138.52Z" fill="#126702"/>
<path d="M3800.33 381.634C3798.61 380.804 3796.53 381.524 3795.78 383.282C3791.03 394.417 3789.02 406.548 3789.95 418.653C3790.96 431.909 3795.46 444.663 3802.99 455.622C3810.51 466.581 3820.8 475.357 3832.81 481.061C3844.82 486.765 3858.12 489.194 3871.38 488.104C3884.63 487.013 3897.35 482.441 3908.27 474.849C3919.18 467.258 3927.9 456.918 3933.53 444.876C3939.17 432.833 3941.52 419.516 3940.35 406.272C3939.28 394.179 3935.32 382.539 3928.81 372.332C3927.78 370.72 3925.61 370.349 3924.05 371.45L3898.75 389.264C3897.19 390.365 3896.83 392.518 3897.78 394.175C3900.49 398.892 3902.15 404.153 3902.63 409.598C3903.21 416.196 3902.04 422.831 3899.23 428.83C3896.43 434.83 3892.09 439.981 3886.65 443.763C3881.21 447.545 3874.87 449.823 3868.27 450.366C3861.67 450.909 3855.04 449.699 3849.06 446.857C3843.07 444.016 3837.95 439.644 3834.2 434.184C3830.45 428.724 3828.21 422.37 3827.7 415.766C3827.28 410.315 3828.06 404.854 3829.96 399.758C3830.63 397.967 3829.93 395.902 3828.2 395.072L3800.33 381.634Z" fill="#126702"/>
<path d="M2401.8 1693C2400.07 1693 2399.13 1692.13 2399 1690.4C2398.87 1688.67 2399.67 1687.67 2401.4 1687.4C2404.87 1687 2407.87 1686.33 2410.4 1685.4C2413.07 1684.47 2415.13 1682.8 2416.6 1680.4C2418.2 1678 2419.13 1674.47 2419.4 1669.8L2424.8 1567.8H2401C2397.27 1567.8 2394.2 1567.93 2391.8 1568.2C2389.4 1568.47 2387.33 1569.27 2385.6 1570.6C2384 1571.8 2382.47 1573.8 2381 1576.6C2379.67 1579.27 2378.07 1583.13 2376.2 1588.2C2375.4 1590.07 2374.13 1590.73 2372.4 1590.2C2371.33 1589.8 2370.8 1588.87 2370.8 1587.4L2372.6 1564.8C2372.87 1563.07 2373.13 1561.87 2373.4 1561.2C2373.8 1560.4 2374.27 1559.87 2374.8 1559.6C2375.33 1559.33 2376.2 1559.2 2377.4 1559.2C2378.6 1559.07 2381 1559 2384.6 1559C2388.33 1558.87 2394.13 1558.8 2402 1558.8H2478.8C2482.67 1558.8 2485.27 1558.87 2486.6 1559C2488.07 1559.13 2489.07 1559.4 2489.6 1559.8C2490.4 1560.2 2490.8 1561.6 2490.8 1564V1587.2C2490.8 1587.6 2490.67 1588.13 2490.4 1588.8C2490.27 1589.33 2489.87 1589.73 2489.2 1590C2488.53 1590.27 2487.87 1590.33 2487.2 1590.2C2486.53 1589.93 2486.07 1589.47 2485.8 1588.8C2484.2 1583.73 2482.73 1579.8 2481.4 1577C2480.07 1574.07 2478.47 1572 2476.6 1570.8C2474.87 1569.47 2472.53 1568.67 2469.6 1568.4C2466.8 1568 2463.13 1567.8 2458.6 1567.8H2438.6L2433.2 1669.8C2432.93 1674.47 2433.47 1678 2434.8 1680.4C2436.13 1682.8 2438.07 1684.47 2440.6 1685.4C2443.27 1686.33 2446.2 1687 2449.4 1687.4C2451.27 1687.67 2452 1688.67 2451.6 1690.4C2451.33 1692.13 2450.4 1693 2448.8 1693H2401.8ZM2513.08 1692.8L2517.08 1566C2516.82 1565.87 2516.42 1565.87 2515.88 1566C2515.35 1566 2514.55 1566.33 2513.48 1567C2508.15 1569.93 2503.62 1569.4 2499.88 1565.4C2502.15 1563.93 2504.88 1562.13 2508.08 1560C2511.42 1557.73 2514.55 1555.73 2517.48 1554C2520.42 1552.13 2522.35 1551 2523.28 1550.6C2525.15 1549.93 2526.68 1550 2527.88 1550.8C2529.22 1551.47 2529.82 1552.67 2529.68 1554.4L2527.08 1632C2528.82 1625.33 2531.88 1619.2 2536.28 1613.6C2540.68 1607.87 2545.75 1603.27 2551.48 1599.8C2557.35 1596.33 2563.02 1594.67 2568.48 1594.8C2572.22 1594.8 2575.68 1595.53 2578.88 1597C2582.22 1598.33 2584.88 1600.73 2586.88 1604.2C2588.88 1607.53 2589.68 1612.33 2589.28 1618.6L2586.08 1676.6C2585.95 1678.2 2586.15 1679.73 2586.68 1681.2C2587.35 1682.53 2588.75 1683.2 2590.88 1683.2C2592.22 1683.2 2593.88 1682.6 2595.88 1681.4C2598.02 1680.2 2599.88 1678.53 2601.48 1676.4C2602.15 1675.47 2602.95 1675.13 2603.88 1675.4C2604.95 1675.67 2605.35 1676.47 2605.08 1677.8C2604.28 1681.93 2602.02 1685.8 2598.28 1689.4C2594.68 1692.87 2590.42 1694.6 2585.48 1694.6C2581.48 1694.6 2578.48 1693.33 2576.48 1690.8C2574.48 1688.13 2573.55 1685.2 2573.68 1682L2577.08 1618.2C2577.35 1615 2576.48 1612.27 2574.48 1610C2572.62 1607.6 2568.95 1606.33 2563.48 1606.2C2560.95 1606.2 2557.68 1607.07 2553.68 1608.8C2549.68 1610.53 2545.62 1613.33 2541.48 1617.2C2537.48 1620.93 2534.02 1625.8 2531.08 1631.8C2528.28 1637.8 2526.75 1645.07 2526.48 1653.6L2525.48 1683.8C2525.35 1688.33 2524.28 1691.13 2522.28 1692.2C2520.42 1693.13 2517.35 1693.33 2513.08 1692.8ZM2659.57 1684.8C2664.9 1685.2 2669.64 1684.53 2673.77 1682.8C2678.04 1681.07 2681.64 1678.87 2684.57 1676.2C2687.5 1673.53 2689.64 1671.13 2690.97 1669C2691.64 1667.8 2692.7 1667.07 2694.17 1666.8C2695.77 1666.53 2697.1 1666.93 2698.17 1668C2697.77 1669.33 2696.77 1671.47 2695.17 1674.4C2693.57 1677.2 2691.17 1680.13 2687.97 1683.2C2684.9 1686.27 2680.97 1688.93 2676.17 1691.2C2671.37 1693.33 2665.7 1694.4 2659.17 1694.4C2650.64 1694.4 2642.97 1692.47 2636.17 1688.6C2629.37 1684.73 2624.04 1679.33 2620.17 1672.4C2616.44 1665.33 2614.7 1657.33 2614.97 1648.4C2615.24 1639.87 2617.04 1632.2 2620.37 1625.4C2623.7 1618.6 2627.97 1612.87 2633.17 1608.2C2638.37 1603.4 2644.1 1599.8 2650.37 1597.4C2656.64 1594.87 2662.77 1593.6 2668.77 1593.6C2674.5 1593.6 2679.17 1594.53 2682.77 1596.4C2686.5 1598.13 2689.44 1600.27 2691.57 1602.8C2693.7 1605.33 2695.17 1607.87 2695.97 1610.4C2696.9 1612.8 2697.37 1614.8 2697.37 1616.4C2697.37 1621.6 2695.7 1626.4 2692.37 1630.8C2689.17 1635.2 2684.84 1639 2679.37 1642.2C2674.04 1645.4 2668.04 1647.87 2661.37 1649.6C2654.7 1651.2 2647.9 1652 2640.97 1652C2638.57 1652 2636.97 1651.33 2636.17 1650C2635.37 1648.53 2635.17 1647.2 2635.57 1646C2640.5 1646 2645.7 1645.27 2651.17 1643.8C2656.77 1642.33 2662.04 1640.33 2666.97 1637.8C2671.9 1635.13 2675.9 1632.2 2678.97 1629C2682.17 1625.67 2683.77 1622.27 2683.77 1618.8C2683.77 1613.73 2682.17 1609.67 2678.97 1606.6C2675.9 1603.4 2671.84 1601.73 2666.77 1601.6C2659.97 1601.47 2653.84 1603.47 2648.37 1607.6C2643.04 1611.73 2638.7 1617.2 2635.37 1624C2632.17 1630.67 2630.37 1637.93 2629.97 1645.8C2629.7 1652.6 2630.64 1658.87 2632.77 1664.6C2635.04 1670.33 2638.44 1675 2642.97 1678.6C2647.5 1682.2 2653.04 1684.27 2659.57 1684.8ZM2788.26 1695.2L2792.86 1568.2C2792.73 1568.2 2792.59 1568.2 2792.46 1568.2C2792.46 1568.07 2792.39 1568 2792.26 1568C2791.99 1568 2791.59 1568.07 2791.06 1568.2C2790.66 1568.33 2789.99 1568.67 2789.06 1569.2C2787.06 1570.4 2785.06 1571 2783.06 1571C2780.53 1571 2778.13 1569.87 2775.86 1567.6C2778.13 1566.13 2780.86 1564.33 2784.06 1562.2C2787.26 1559.93 2790.26 1557.87 2793.06 1556C2795.86 1554.13 2797.79 1553.07 2798.86 1552.8C2799.26 1552.67 2799.66 1552.6 2800.06 1552.6C2800.46 1552.47 2800.86 1552.4 2801.26 1552.4C2804.06 1552.4 2805.46 1553.8 2805.46 1556.6L2802.66 1632.6C2806.26 1619.93 2811.59 1610.67 2818.66 1604.8C2825.86 1598.8 2833.13 1595.8 2840.46 1595.8C2848.73 1595.8 2855.39 1598.27 2860.46 1603.2C2865.53 1608.13 2869.06 1614.53 2871.06 1622.4C2873.06 1630.27 2873.53 1638.53 2872.46 1647.2C2871.66 1654.8 2869.46 1661.93 2865.86 1668.6C2862.39 1675.13 2858.06 1680.67 2852.86 1685.2C2847.66 1689.73 2841.99 1692.8 2835.86 1694.4C2833.46 1694.93 2830.59 1695.2 2827.26 1695.2C2823.93 1695.2 2820.59 1694.67 2817.26 1693.6C2813.93 1692.53 2810.99 1690.73 2808.46 1688.2C2807.39 1687.13 2806.73 1685.93 2806.46 1684.6C2806.19 1683.13 2806.66 1681.73 2807.86 1680.4C2811.46 1684 2815.86 1686.33 2821.06 1687.4C2826.39 1688.33 2831.53 1687.33 2836.46 1684.4C2841.66 1681.33 2846.26 1676.87 2850.26 1671C2854.26 1665.13 2856.86 1658.13 2858.06 1650C2859.13 1642.53 2858.99 1635.53 2857.66 1629C2856.46 1622.33 2854.13 1616.93 2850.66 1612.8C2847.19 1608.67 2842.66 1606.6 2837.06 1606.6C2831.19 1606.6 2825.33 1609.33 2819.46 1614.8C2813.59 1620.27 2808.93 1629.2 2805.46 1641.6C2804.66 1644.67 2803.99 1647.47 2803.46 1650C2803.06 1652.4 2802.73 1655.07 2802.46 1658C2802.19 1660.93 2801.93 1664.8 2801.66 1669.6L2800.86 1683.8C2800.73 1687.8 2799.79 1690.87 2798.06 1693C2796.33 1695 2793.06 1695.73 2788.26 1695.2ZM2932.42 1684.8C2937.75 1685.2 2942.49 1684.53 2946.62 1682.8C2950.89 1681.07 2954.49 1678.87 2957.42 1676.2C2960.35 1673.53 2962.49 1671.13 2963.82 1669C2964.49 1667.8 2965.55 1667.07 2967.02 1666.8C2968.62 1666.53 2969.95 1666.93 2971.02 1668C2970.62 1669.33 2969.62 1671.47 2968.02 1674.4C2966.42 1677.2 2964.02 1680.13 2960.82 1683.2C2957.75 1686.27 2953.82 1688.93 2949.02 1691.2C2944.22 1693.33 2938.55 1694.4 2932.02 1694.4C2923.49 1694.4 2915.82 1692.47 2909.02 1688.6C2902.22 1684.73 2896.89 1679.33 2893.02 1672.4C2889.29 1665.33 2887.55 1657.33 2887.82 1648.4C2888.09 1639.87 2889.89 1632.2 2893.22 1625.4C2896.55 1618.6 2900.82 1612.87 2906.02 1608.2C2911.22 1603.4 2916.95 1599.8 2923.22 1597.4C2929.49 1594.87 2935.62 1593.6 2941.62 1593.6C2947.35 1593.6 2952.02 1594.53 2955.62 1596.4C2959.35 1598.13 2962.29 1600.27 2964.42 1602.8C2966.55 1605.33 2968.02 1607.87 2968.82 1610.4C2969.75 1612.8 2970.22 1614.8 2970.22 1616.4C2970.22 1621.6 2968.55 1626.4 2965.22 1630.8C2962.02 1635.2 2957.69 1639 2952.22 1642.2C2946.89 1645.4 2940.89 1647.87 2934.22 1649.6C2927.55 1651.2 2920.75 1652 2913.82 1652C2911.42 1652 2909.82 1651.33 2909.02 1650C2908.22 1648.53 2908.02 1647.2 2908.42 1646C2913.35 1646 2918.55 1645.27 2924.02 1643.8C2929.62 1642.33 2934.89 1640.33 2939.82 1637.8C2944.75 1635.13 2948.75 1632.2 2951.82 1629C2955.02 1625.67 2956.62 1622.27 2956.62 1618.8C2956.62 1613.73 2955.02 1609.67 2951.82 1606.6C2948.75 1603.4 2944.69 1601.73 2939.62 1601.6C2932.82 1601.47 2926.69 1603.47 2921.22 1607.6C2915.89 1611.73 2911.55 1617.2 2908.22 1624C2905.02 1630.67 2903.22 1637.93 2902.82 1645.8C2902.55 1652.6 2903.49 1658.87 2905.62 1664.6C2907.89 1670.33 2911.29 1675 2915.82 1678.6C2920.35 1682.2 2925.89 1684.27 2932.42 1684.8ZM2998.45 1672.2L3001.25 1605.6C2998.32 1605.73 2996.05 1605.93 2994.45 1606.2C2992.98 1606.33 2991.58 1606.6 2990.25 1607C2988.25 1607.67 2987.05 1608.47 2986.65 1609.4C2986.12 1610.2 2985.32 1610.47 2984.25 1610.2C2983.32 1609.93 2982.92 1609.13 2983.05 1607.8L2983.85 1600C2984.12 1598.53 2985.12 1597.8 2986.85 1597.8H3001.65L3002.45 1578.8C3002.58 1575.6 3003.52 1573.07 3005.25 1571.2C3006.98 1569.2 3010.25 1568.33 3015.05 1568.6L3013.85 1597.8H3037.65C3039.52 1597.8 3040.32 1598.53 3040.05 1600L3039.25 1607.8C3039.12 1609.13 3038.58 1609.93 3037.65 1610.2C3036.85 1610.47 3036.18 1610.2 3035.65 1609.4C3035.25 1608.47 3034.05 1607.67 3032.05 1607C3030.32 1606.33 3028.25 1605.93 3025.85 1605.8C3023.58 1605.67 3019.45 1605.6 3013.45 1605.6L3010.65 1669C3010.52 1673.93 3011.38 1677.53 3013.25 1679.8C3015.25 1681.93 3017.78 1683.13 3020.85 1683.4C3024.05 1683.53 3027.12 1682.93 3030.05 1681.6C3033.12 1680.27 3035.78 1678.47 3038.05 1676.2C3038.85 1675.4 3039.78 1675.33 3040.85 1676C3042.05 1676.67 3042.38 1677.67 3041.85 1679C3040.12 1683.27 3036.92 1686.93 3032.25 1690C3027.58 1693.07 3022.58 1694.6 3017.25 1694.6C3014.72 1694.6 3011.92 1693.93 3008.85 1692.6C3005.78 1691.27 3003.18 1689 3001.05 1685.8C2999.05 1682.47 2998.18 1677.93 2998.45 1672.2ZM3066.81 1672.2L3069.61 1605.6C3066.67 1605.73 3064.41 1605.93 3062.81 1606.2C3061.34 1606.33 3059.94 1606.6 3058.61 1607C3056.61 1607.67 3055.41 1608.47 3055.01 1609.4C3054.47 1610.2 3053.67 1610.47 3052.61 1610.2C3051.67 1609.93 3051.27 1609.13 3051.41 1607.8L3052.21 1600C3052.47 1598.53 3053.47 1597.8 3055.21 1597.8H3070.01L3070.81 1578.8C3070.94 1575.6 3071.87 1573.07 3073.61 1571.2C3075.34 1569.2 3078.61 1568.33 3083.41 1568.6L3082.21 1597.8H3106.01C3107.87 1597.8 3108.67 1598.53 3108.41 1600L3107.61 1607.8C3107.47 1609.13 3106.94 1609.93 3106.01 1610.2C3105.21 1610.47 3104.54 1610.2 3104.01 1609.4C3103.61 1608.47 3102.41 1607.67 3100.41 1607C3098.67 1606.33 3096.61 1605.93 3094.21 1605.8C3091.94 1605.67 3087.81 1605.6 3081.81 1605.6L3079.01 1669C3078.87 1673.93 3079.74 1677.53 3081.61 1679.8C3083.61 1681.93 3086.14 1683.13 3089.21 1683.4C3092.41 1683.53 3095.47 1682.93 3098.41 1681.6C3101.47 1680.27 3104.14 1678.47 3106.41 1676.2C3107.21 1675.4 3108.14 1675.33 3109.21 1676C3110.41 1676.67 3110.74 1677.67 3110.21 1679C3108.47 1683.27 3105.27 1686.93 3100.61 1690C3095.94 1693.07 3090.94 1694.6 3085.61 1694.6C3083.07 1694.6 3080.27 1693.93 3077.21 1692.6C3074.14 1691.27 3071.54 1689 3069.41 1685.8C3067.41 1682.47 3066.54 1677.93 3066.81 1672.2ZM3167.97 1684.8C3173.3 1685.2 3178.03 1684.53 3182.17 1682.8C3186.43 1681.07 3190.03 1678.87 3192.97 1676.2C3195.9 1673.53 3198.03 1671.13 3199.37 1669C3200.03 1667.8 3201.1 1667.07 3202.57 1666.8C3204.17 1666.53 3205.5 1666.93 3206.57 1668C3206.17 1669.33 3205.17 1671.47 3203.57 1674.4C3201.97 1677.2 3199.57 1680.13 3196.37 1683.2C3193.3 1686.27 3189.37 1688.93 3184.57 1691.2C3179.77 1693.33 3174.1 1694.4 3167.57 1694.4C3159.03 1694.4 3151.37 1692.47 3144.57 1688.6C3137.77 1684.73 3132.43 1679.33 3128.57 1672.4C3124.83 1665.33 3123.1 1657.33 3123.37 1648.4C3123.63 1639.87 3125.43 1632.2 3128.77 1625.4C3132.1 1618.6 3136.37 1612.87 3141.57 1608.2C3146.77 1603.4 3152.5 1599.8 3158.77 1597.4C3165.03 1594.87 3171.17 1593.6 3177.17 1593.6C3182.9 1593.6 3187.57 1594.53 3191.17 1596.4C3194.9 1598.13 3197.83 1600.27 3199.97 1602.8C3202.1 1605.33 3203.57 1607.87 3204.37 1610.4C3205.3 1612.8 3205.77 1614.8 3205.77 1616.4C3205.77 1621.6 3204.1 1626.4 3200.77 1630.8C3197.57 1635.2 3193.23 1639 3187.77 1642.2C3182.43 1645.4 3176.43 1647.87 3169.77 1649.6C3163.1 1651.2 3156.3 1652 3149.37 1652C3146.97 1652 3145.37 1651.33 3144.57 1650C3143.77 1648.53 3143.57 1647.2 3143.97 1646C3148.9 1646 3154.1 1645.27 3159.57 1643.8C3165.17 1642.33 3170.43 1640.33 3175.37 1637.8C3180.3 1635.13 3184.3 1632.2 3187.37 1629C3190.57 1625.67 3192.17 1622.27 3192.17 1618.8C3192.17 1613.73 3190.57 1609.67 3187.37 1606.6C3184.3 1603.4 3180.23 1601.73 3175.17 1601.6C3168.37 1601.47 3162.23 1603.47 3156.77 1607.6C3151.43 1611.73 3147.1 1617.2 3143.77 1624C3140.57 1630.67 3138.77 1637.93 3138.37 1645.8C3138.1 1652.6 3139.03 1658.87 3141.17 1664.6C3143.43 1670.33 3146.83 1675 3151.37 1678.6C3155.9 1682.2 3161.43 1684.27 3167.97 1684.8ZM3218.8 1609.2C3221.06 1607.73 3223.8 1605.93 3227 1603.8C3230.2 1601.53 3233.2 1599.47 3236 1597.6C3238.93 1595.73 3240.86 1594.67 3241.8 1594.4C3243.66 1593.73 3245.33 1593.8 3246.8 1594.6C3248.26 1595.27 3248.93 1596.47 3248.8 1598.2L3246.4 1646.2C3248.26 1636.07 3251.26 1627.33 3255.4 1620C3259.66 1612.67 3264.26 1606.87 3269.2 1602.6C3274.13 1598.2 3278.46 1595.47 3282.2 1594.4C3283.8 1593.87 3285.06 1593.87 3286 1594.4C3287.06 1594.8 3288.13 1595.6 3289.2 1596.8C3291.33 1599.2 3292.46 1601.93 3292.6 1605C3292.73 1608.07 3291.46 1609.8 3288.8 1610.2C3287.86 1610.33 3286.93 1610.27 3286 1610C3285.2 1609.6 3284.46 1609.27 3283.8 1609C3280.46 1608.73 3276.66 1610.2 3272.4 1613.4C3268.13 1616.6 3264 1621.47 3260 1628C3256 1634.4 3252.53 1642.33 3249.6 1651.8C3246.8 1661.13 3245.13 1671.87 3244.6 1684C3244.46 1687.47 3243.46 1689.93 3241.6 1691.4C3239.73 1692.87 3236.53 1693.33 3232 1692.8L3236 1609.8C3235.73 1609.67 3235.33 1609.67 3234.8 1609.8C3234.26 1609.8 3233.46 1610.13 3232.4 1610.8C3227.06 1613.6 3222.53 1613.07 3218.8 1609.2ZM3372.2 1683.4L3378.4 1567.2C3378.27 1567.07 3377.93 1567.07 3377.4 1567.2C3377 1567.2 3376.13 1567.53 3374.8 1568.2C3369.47 1571 3365.07 1570.47 3361.6 1566.6C3363.73 1565.13 3366.4 1563.33 3369.6 1561.2C3372.8 1558.93 3375.8 1556.87 3378.6 1555C3381.53 1553.13 3383.47 1552.07 3384.4 1551.8C3386.27 1551.13 3387.87 1551.13 3389.2 1551.8C3390.53 1552.47 3391.13 1553.67 3391 1555.4L3384.6 1678C3384.47 1679.6 3384.67 1681.13 3385.2 1682.6C3385.87 1683.93 3387.27 1684.6 3389.4 1684.6C3390.73 1684.6 3392.47 1684 3394.6 1682.8C3396.73 1681.6 3398.6 1679.93 3400.2 1677.8C3400.87 1676.87 3401.67 1676.6 3402.6 1677C3403.67 1677.4 3404.07 1678.27 3403.8 1679.6C3402.87 1684 3400.53 1687.87 3396.8 1691.2C3393.2 1694.4 3388.93 1696 3384 1696C3380 1696 3377 1694.73 3375 1692.2C3373 1689.53 3372.07 1686.6 3372.2 1683.4ZM3459.37 1684.8C3464.71 1685.2 3469.44 1684.53 3473.57 1682.8C3477.84 1681.07 3481.44 1678.87 3484.37 1676.2C3487.31 1673.53 3489.44 1671.13 3490.77 1669C3491.44 1667.8 3492.51 1667.07 3493.97 1666.8C3495.57 1666.53 3496.91 1666.93 3497.97 1668C3497.57 1669.33 3496.57 1671.47 3494.97 1674.4C3493.37 1677.2 3490.97 1680.13 3487.77 1683.2C3484.71 1686.27 3480.77 1688.93 3475.97 1691.2C3471.17 1693.33 3465.51 1694.4 3458.97 1694.4C3450.44 1694.4 3442.77 1692.47 3435.97 1688.6C3429.17 1684.73 3423.84 1679.33 3419.97 1672.4C3416.24 1665.33 3414.51 1657.33 3414.77 1648.4C3415.04 1639.87 3416.84 1632.2 3420.17 1625.4C3423.51 1618.6 3427.77 1612.87 3432.97 1608.2C3438.17 1603.4 3443.91 1599.8 3450.17 1597.4C3456.44 1594.87 3462.57 1593.6 3468.57 1593.6C3474.31 1593.6 3478.97 1594.53 3482.57 1596.4C3486.31 1598.13 3489.24 1600.27 3491.37 1602.8C3493.51 1605.33 3494.97 1607.87 3495.77 1610.4C3496.71 1612.8 3497.17 1614.8 3497.17 1616.4C3497.17 1621.6 3495.51 1626.4 3492.17 1630.8C3488.97 1635.2 3484.64 1639 3479.17 1642.2C3473.84 1645.4 3467.84 1647.87 3461.17 1649.6C3454.51 1651.2 3447.71 1652 3440.77 1652C3438.37 1652 3436.77 1651.33 3435.97 1650C3435.17 1648.53 3434.97 1647.2 3435.37 1646C3440.31 1646 3445.51 1645.27 3450.97 1643.8C3456.57 1642.33 3461.84 1640.33 3466.77 1637.8C3471.71 1635.13 3475.71 1632.2 3478.77 1629C3481.97 1625.67 3483.57 1622.27 3483.57 1618.8C3483.57 1613.73 3481.97 1609.67 3478.77 1606.6C3475.71 1603.4 3471.64 1601.73 3466.57 1601.6C3459.77 1601.47 3453.64 1603.47 3448.17 1607.6C3442.84 1611.73 3438.51 1617.2 3435.17 1624C3431.97 1630.67 3430.17 1637.93 3429.77 1645.8C3429.51 1652.6 3430.44 1658.87 3432.57 1664.6C3434.84 1670.33 3438.24 1675 3442.77 1678.6C3447.31 1682.2 3452.84 1684.27 3459.37 1684.8ZM3546.8 1695.2C3541.2 1695.2 3535.87 1693.67 3530.8 1690.6C3525.73 1687.4 3521.6 1682.8 3518.4 1676.8C3515.2 1670.8 3513.6 1663.6 3513.6 1655.2C3513.6 1647.73 3514.93 1640.47 3517.6 1633.4C3520.4 1626.2 3524.2 1619.73 3529 1614C3533.8 1608.27 3539.33 1603.67 3545.6 1600.2C3552 1596.73 3558.87 1595 3566.2 1595C3573.67 1595 3579.87 1596.27 3584.8 1598.8C3589.87 1601.2 3593.4 1603.47 3595.4 1605.6L3593 1677.2C3592.87 1678.8 3593.07 1680.33 3593.6 1681.8C3594.27 1683.13 3595.67 1683.8 3597.8 1683.8C3599.13 1683.8 3600.8 1683.2 3602.8 1682C3604.93 1680.8 3606.8 1679.13 3608.4 1677C3609.07 1676.07 3609.87 1675.73 3610.8 1676C3611.87 1676.27 3612.27 1677.07 3612 1678.4C3611.2 1682.53 3608.93 1686.4 3605.2 1690C3601.6 1693.47 3597.33 1695.2 3592.4 1695.2C3588.4 1695.2 3585.4 1693.93 3583.4 1691.4C3581.4 1688.73 3580.47 1685.8 3580.6 1682.6L3581.4 1661.8C3579.93 1666.87 3577.6 1672 3574.4 1677.2C3571.2 1682.4 3567.27 1686.73 3562.6 1690.2C3557.93 1693.53 3552.67 1695.2 3546.8 1695.2ZM3528.2 1655.4C3528.2 1660.33 3529 1665.13 3530.6 1669.8C3532.2 1674.33 3534.6 1678.07 3537.8 1681C3541 1683.93 3544.87 1685.4 3549.4 1685.4C3553.53 1685.4 3557.47 1683.93 3561.2 1681C3564.93 1678.07 3568.27 1674.27 3571.2 1669.6C3574.27 1664.8 3576.73 1659.67 3578.6 1654.2C3580.47 1648.73 3581.53 1643.47 3581.8 1638.4L3582.6 1620.6C3582.73 1618.47 3582.67 1616.73 3582.4 1615.4C3582.27 1614.07 3581.87 1612.87 3581.2 1611.8C3579.73 1609.4 3577.47 1607.33 3574.4 1605.6C3571.33 1603.87 3567.87 1603 3564 1603C3558.4 1603 3553.33 1604.67 3548.8 1608C3544.4 1611.33 3540.67 1615.67 3537.6 1621C3534.53 1626.33 3532.2 1632.07 3530.6 1638.2C3529 1644.2 3528.2 1649.93 3528.2 1655.4ZM3618.6 1609.2C3620.87 1607.73 3623.6 1605.93 3626.8 1603.8C3630 1601.53 3633 1599.47 3635.8 1597.6C3638.73 1595.73 3640.67 1594.67 3641.6 1594.4C3643.47 1593.73 3645.13 1593.8 3646.6 1594.6C3648.07 1595.27 3648.73 1596.47 3648.6 1598.2L3646.2 1646.2C3648.07 1636.07 3651.07 1627.33 3655.2 1620C3659.47 1612.67 3664.07 1606.87 3669 1602.6C3673.93 1598.2 3678.27 1595.47 3682 1594.4C3683.6 1593.87 3684.87 1593.87 3685.8 1594.4C3686.87 1594.8 3687.93 1595.6 3689 1596.8C3691.13 1599.2 3692.27 1601.93 3692.4 1605C3692.53 1608.07 3691.27 1609.8 3688.6 1610.2C3687.67 1610.33 3686.73 1610.27 3685.8 1610C3685 1609.6 3684.27 1609.27 3683.6 1609C3680.27 1608.73 3676.47 1610.2 3672.2 1613.4C3667.93 1616.6 3663.8 1621.47 3659.8 1628C3655.8 1634.4 3652.33 1642.33 3649.4 1651.8C3646.6 1661.13 3644.93 1671.87 3644.4 1684C3644.27 1687.47 3643.27 1689.93 3641.4 1691.4C3639.53 1692.87 3636.33 1693.33 3631.8 1692.8L3635.8 1609.8C3635.53 1609.67 3635.13 1609.67 3634.6 1609.8C3634.07 1609.8 3633.27 1610.13 3632.2 1610.8C3626.87 1613.6 3622.33 1613.07 3618.6 1609.2ZM3711.7 1692.4L3715.3 1613.2C3714.63 1612.53 3713.3 1612.87 3711.3 1614.2C3706.1 1617 3701.63 1616.47 3697.9 1612.6C3700.16 1611.13 3702.9 1609.33 3706.1 1607.2C3709.3 1604.93 3712.3 1602.87 3715.1 1601C3718.03 1599.13 3719.96 1598.07 3720.9 1597.8C3722.76 1597.13 3724.3 1597.2 3725.5 1598C3726.83 1598.67 3727.43 1599.87 3727.3 1601.6L3725.7 1629.8C3728.1 1623.93 3731.3 1618.4 3735.3 1613.2C3739.3 1608 3743.96 1603.8 3749.3 1600.6C3754.63 1597.27 3760.5 1595.6 3766.9 1595.6C3769.83 1595.6 3772.96 1596.33 3776.3 1597.8C3779.63 1599.13 3782.43 1601.53 3784.7 1605C3786.96 1608.47 3787.9 1613.47 3787.5 1620L3784.1 1676C3783.96 1678.13 3784.16 1680 3784.7 1681.6C3785.36 1683.07 3786.76 1683.8 3788.9 1683.8C3790.36 1683.8 3791.96 1683.13 3793.7 1681.8C3795.43 1680.47 3796.76 1678.87 3797.7 1677C3798.23 1676.07 3798.96 1675.73 3799.9 1676C3800.96 1676.27 3801.36 1677.07 3801.1 1678.4C3800.3 1682.27 3798.3 1685.87 3795.1 1689.2C3792.03 1692.53 3788.16 1694.2 3783.5 1694.2C3779.5 1694.2 3776.5 1692.93 3774.5 1690.4C3772.5 1687.73 3771.56 1684.8 3771.7 1681.6L3775.1 1620C3775.36 1616.13 3774.23 1613 3771.7 1610.6C3769.3 1608.2 3766.03 1606.93 3761.9 1606.8C3755.36 1606.67 3748.96 1609.33 3742.7 1614.8C3736.56 1620.27 3731.5 1628.87 3727.5 1640.6C3726.83 1642.6 3726.23 1644.87 3725.7 1647.4C3725.3 1649.93 3725.03 1652.73 3724.9 1655.8L3723.9 1681.2C3723.76 1685.73 3722.83 1688.93 3721.1 1690.8C3719.5 1692.53 3716.36 1693.07 3711.7 1692.4ZM3821.43 1559.8C3821.03 1558.47 3821.63 1557.53 3823.23 1557C3824.83 1556.33 3826.89 1556.2 3829.43 1556.6C3831.96 1557 3834.43 1557.87 3836.83 1559.2C3839.23 1560.53 3840.96 1562.4 3842.03 1564.8C3843.09 1567.33 3842.69 1569.93 3840.83 1572.6C3838.96 1575.13 3836.76 1576.73 3834.23 1577.4C3833.03 1577.8 3831.23 1577.8 3828.83 1577.4C3826.56 1577 3825.29 1575.67 3825.03 1573.4C3825.03 1572.33 3824.76 1570.53 3824.23 1568C3823.69 1565.47 3822.76 1562.73 3821.43 1559.8ZM3824.63 1682.8L3828.83 1611.6C3828.69 1611.47 3828.36 1611.47 3827.83 1611.6C3827.43 1611.6 3826.56 1611.93 3825.23 1612.6C3819.89 1615.4 3815.49 1614.87 3812.03 1611C3814.16 1609.53 3816.83 1607.73 3820.03 1605.6C3823.23 1603.33 3826.23 1601.27 3829.03 1599.4C3831.96 1597.53 3833.89 1596.47 3834.83 1596.2C3836.69 1595.53 3838.29 1595.53 3839.63 1596.2C3840.96 1596.87 3841.56 1598.07 3841.43 1599.8L3837.03 1677.4C3836.89 1679 3837.09 1680.53 3837.63 1682C3838.29 1683.33 3839.69 1684 3841.83 1684C3843.16 1684 3844.83 1683.4 3846.83 1682.2C3848.96 1681 3850.83 1679.33 3852.43 1677.2C3853.09 1676.27 3853.89 1675.93 3854.83 1676.2C3855.89 1676.47 3856.29 1677.27 3856.03 1678.6C3855.23 1682.73 3852.96 1686.6 3849.23 1690.2C3845.63 1693.67 3841.36 1695.4 3836.43 1695.4C3832.43 1695.4 3829.43 1694.13 3827.43 1691.6C3825.43 1688.93 3824.49 1686 3824.63 1682.8ZM3879.28 1692.4L3882.88 1613.2C3882.21 1612.53 3880.88 1612.87 3878.88 1614.2C3873.68 1617 3869.21 1616.47 3865.48 1612.6C3867.74 1611.13 3870.48 1609.33 3873.68 1607.2C3876.88 1604.93 3879.88 1602.87 3882.68 1601C3885.61 1599.13 3887.54 1598.07 3888.48 1597.8C3890.34 1597.13 3891.88 1597.2 3893.08 1598C3894.41 1598.67 3895.01 1599.87 3894.88 1601.6L3893.28 1629.8C3895.68 1623.93 3898.88 1618.4 3902.88 1613.2C3906.88 1608 3911.54 1603.8 3916.88 1600.6C3922.21 1597.27 3928.08 1595.6 3934.48 1595.6C3937.41 1595.6 3940.54 1596.33 3943.88 1597.8C3947.21 1599.13 3950.01 1601.53 3952.28 1605C3954.54 1608.47 3955.48 1613.47 3955.08 1620L3951.68 1676C3951.54 1678.13 3951.74 1680 3952.28 1681.6C3952.94 1683.07 3954.34 1683.8 3956.48 1683.8C3957.94 1683.8 3959.54 1683.13 3961.28 1681.8C3963.01 1680.47 3964.34 1678.87 3965.28 1677C3965.81 1676.07 3966.54 1675.73 3967.47 1676C3968.54 1676.27 3968.94 1677.07 3968.68 1678.4C3967.88 1682.27 3965.88 1685.87 3962.68 1689.2C3959.61 1692.53 3955.74 1694.2 3951.08 1694.2C3947.08 1694.2 3944.08 1692.93 3942.08 1690.4C3940.08 1687.73 3939.14 1684.8 3939.28 1681.6L3942.68 1620C3942.94 1616.13 3941.81 1613 3939.28 1610.6C3936.88 1608.2 3933.61 1606.93 3929.48 1606.8C3922.94 1606.67 3916.54 1609.33 3910.28 1614.8C3904.14 1620.27 3899.08 1628.87 3895.08 1640.6C3894.41 1642.6 3893.81 1644.87 3893.28 1647.4C3892.88 1649.93 3892.61 1652.73 3892.48 1655.8L3891.48 1681.2C3891.34 1685.73 3890.41 1688.93 3888.68 1690.8C3887.08 1692.53 3883.94 1693.07 3879.28 1692.4ZM4058.4 1674.6C4058 1686.6 4056.34 1697.33 4053.4 1706.8C4050.6 1716.27 4046 1723.67 4039.6 1729C4033.34 1734.47 4024.67 1737.2 4013.6 1737.2C4007.2 1737.2 4001.54 1736.2 3996.6 1734.2C3991.67 1732.33 3987.74 1730 3984.8 1727.2C3981.87 1724.53 3980.07 1722.07 3979.4 1719.8C3978.87 1717.93 3979.27 1716.13 3980.6 1714.4C3981.94 1712.67 3984.07 1711.33 3987 1710.4C3988.74 1709.87 3990.34 1709.6 3991.8 1709.6C3993.4 1709.73 3994.47 1710.33 3995 1711.4C3995.67 1712.33 3995.87 1713.4 3995.6 1714.6C3995.47 1715.93 3995.2 1717.13 3994.8 1718.2C3994.94 1719 3995.67 1720.33 3997 1722.2C3998.47 1724.07 4000.67 1725.73 4003.6 1727.2C4006.54 1728.8 4010.2 1729.6 4014.6 1729.6C4020.6 1729.6 4025.6 1728.07 4029.6 1725C4033.6 1722.07 4036.74 1718.07 4039 1713C4041.4 1708.07 4043.14 1702.67 4044.2 1696.8C4045.4 1691.07 4046.07 1685.47 4046.2 1680L4047 1658.2C4046.07 1662.07 4044.6 1666.13 4042.6 1670.4C4040.74 1674.53 4038.34 1678.47 4035.4 1682.2C4032.6 1685.8 4029.2 1688.8 4025.2 1691.2C4021.2 1693.47 4016.67 1694.6 4011.6 1694.6C4005.87 1694.6 4000.54 1693 3995.6 1689.8C3990.8 1686.6 3986.94 1682.07 3984 1676.2C3981.07 1670.2 3979.6 1663.2 3979.6 1655.2C3979.6 1648.27 3980.8 1641.27 3983.2 1634.2C3985.6 1627.13 3989 1620.67 3993.4 1614.8C3997.94 1608.8 4003.27 1604 4009.4 1600.4C4015.54 1596.8 4022.34 1595 4029.8 1595C4038.07 1595 4044.8 1596.27 4050 1598.8C4055.2 1601.2 4058.8 1603.47 4060.8 1605.6L4058.4 1674.6ZM3992.4 1655.4C3992.4 1663.53 3994.14 1670.53 3997.6 1676.4C4001.2 1682.27 4006.54 1685.2 4013.6 1685.2C4018.27 1685.2 4022.54 1683.8 4026.4 1681C4030.4 1678.07 4033.87 1674.27 4036.8 1669.6C4039.87 1664.93 4042.27 1659.93 4044 1654.6C4045.74 1649.13 4046.74 1643.87 4047 1638.8L4048.2 1615.4C4047.27 1612.2 4045.07 1609.4 4041.6 1607C4038.27 1604.47 4034 1603.2 4028.8 1603.2C4022.67 1603.2 4017.34 1604.93 4012.8 1608.4C4008.27 1611.87 4004.47 1616.33 4001.4 1621.8C3998.47 1627.27 3996.2 1633 3994.6 1639C3993.14 1644.87 3992.4 1650.33 3992.4 1655.4ZM4138.94 1735.8C4134.27 1735.93 4129.8 1735.07 4125.54 1733.2C4121.14 1731.47 4118.2 1728.93 4116.74 1725.6C4115.8 1723.33 4116.27 1721.2 4118.14 1719.2C4119.87 1717.33 4122.4 1716.27 4125.74 1716C4126.94 1715.87 4128.14 1715.93 4129.34 1716.2C4130.4 1716.47 4131.07 1717.13 4131.34 1718.2C4131.6 1719.13 4131.6 1720.07 4131.34 1721C4131.07 1721.93 4130.87 1722.73 4130.74 1723.4C4131 1725 4131.87 1726.47 4133.34 1727.8C4134.8 1729.13 4136.8 1729.8 4139.34 1729.8C4143.2 1729.8 4146.34 1728.53 4148.74 1726C4151.14 1723.6 4153 1720.4 4154.34 1716.4C4155.67 1712.4 4156.6 1708.07 4157.14 1703.4C4157.8 1698.73 4158.2 1694.07 4158.34 1689.4C4158.47 1684.73 4158.6 1680.6 4158.74 1677L4160.34 1606C4157.4 1606.13 4155.14 1606.27 4153.54 1606.4C4152.07 1606.53 4150.6 1606.87 4149.14 1607.4C4147.14 1608.07 4145.94 1608.87 4145.54 1609.8C4145 1610.6 4144.2 1610.93 4143.14 1610.8C4142.2 1610.53 4141.8 1609.8 4141.94 1608.6L4142.54 1600.4C4142.67 1599.73 4142.87 1599.2 4143.14 1598.8C4143.54 1598.4 4144.2 1598.2 4145.14 1598.2H4160.54C4161.6 1580.47 4165.27 1567.67 4171.54 1559.8C4177.94 1551.8 4186 1547.8 4195.74 1547.8C4201.07 1547.8 4205.87 1549.13 4210.14 1551.8C4214.54 1554.47 4217 1557.53 4217.54 1561C4217.8 1562.87 4217.07 1564.6 4215.34 1566.2C4213.74 1567.67 4211.87 1568.67 4209.74 1569.2C4207.74 1569.73 4206.27 1569.6 4205.34 1568.8C4204.67 1568.13 4204.34 1567.27 4204.34 1566.2C4204.34 1565.13 4204.54 1564.13 4204.94 1563.2C4204.4 1561.33 4203.14 1559.6 4201.14 1558C4199.27 1556.27 4197 1555.4 4194.34 1555.4C4190.2 1555.27 4186.8 1556.4 4184.14 1558.8C4181.47 1561.2 4179.4 1564.4 4177.94 1568.4C4176.6 1572.27 4175.6 1576.47 4174.94 1581C4174.27 1585.53 4173.87 1589.93 4173.74 1594.2L4173.54 1598.2H4196.54C4198.54 1598.2 4199.4 1598.93 4199.14 1600.4L4198.54 1608.6C4198.4 1609.8 4197.87 1610.47 4196.94 1610.6C4196 1610.73 4195.34 1610.47 4194.94 1609.8C4194.8 1609.4 4194.47 1609 4193.94 1608.6C4193.4 1608.07 4192.47 1607.6 4191.14 1607.2C4189.4 1606.67 4187.47 1606.33 4185.34 1606.2C4183.2 1606.07 4179.2 1606 4173.34 1606L4170.74 1687.6C4170.47 1695.87 4169.4 1703.6 4167.54 1710.8C4165.67 1718.13 4162.47 1724.07 4157.94 1728.6C4153.54 1733.13 4147.2 1735.53 4138.94 1735.8ZM4253.27 1694.4C4245.41 1694.4 4238.21 1692.33 4231.67 1688.2C4225.27 1683.93 4220.34 1678 4216.87 1670.4C4213.41 1662.8 4212.07 1654.07 4212.87 1644.2C4213.81 1634.33 4216.47 1625.67 4220.87 1618.2C4225.41 1610.73 4231.21 1604.93 4238.27 1600.8C4245.34 1596.53 4253.14 1594.4 4261.67 1594.4C4269.54 1594.4 4276.67 1596.53 4283.07 1600.8C4289.61 1604.93 4294.67 1610.73 4298.27 1618.2C4302.01 1625.67 4303.41 1634.33 4302.47 1644.2C4301.67 1654.07 4298.94 1662.8 4294.27 1670.4C4289.74 1678 4283.87 1683.93 4276.67 1688.2C4269.61 1692.33 4261.81 1694.4 4253.27 1694.4ZM4226.67 1644.2C4226.41 1651.93 4227.41 1659.07 4229.67 1665.6C4232.07 1672 4235.47 1677.13 4239.87 1681C4244.41 1684.73 4249.67 1686.6 4255.67 1686.6C4261.67 1686.6 4267.07 1684.73 4271.87 1681C4276.67 1677.13 4280.54 1672 4283.47 1665.6C4286.54 1659.07 4288.21 1651.93 4288.47 1644.2C4288.87 1636.47 4287.87 1629.47 4285.47 1623.2C4283.07 1616.8 4279.67 1611.73 4275.27 1608C4270.87 1604.13 4265.67 1602.2 4259.67 1602.2C4253.67 1602.2 4248.21 1604.13 4243.27 1608C4238.47 1611.73 4234.61 1616.8 4231.67 1623.2C4228.74 1629.47 4227.07 1636.47 4226.67 1644.2ZM4314.69 1609.2C4316.96 1607.73 4319.69 1605.93 4322.89 1603.8C4326.09 1601.53 4329.09 1599.47 4331.89 1597.6C4334.83 1595.73 4336.76 1594.67 4337.69 1594.4C4339.56 1593.73 4341.23 1593.8 4342.69 1594.6C4344.16 1595.27 4344.83 1596.47 4344.69 1598.2L4342.29 1646.2C4344.16 1636.07 4347.16 1627.33 4351.29 1620C4355.56 1612.67 4360.16 1606.87 4365.09 1602.6C4370.03 1598.2 4374.36 1595.47 4378.09 1594.4C4379.69 1593.87 4380.96 1593.87 4381.89 1594.4C4382.96 1594.8 4384.03 1595.6 4385.09 1596.8C4387.23 1599.2 4388.36 1601.93 4388.49 1605C4388.63 1608.07 4387.36 1609.8 4384.69 1610.2C4383.76 1610.33 4382.83 1610.27 4381.89 1610C4381.09 1609.6 4380.36 1609.27 4379.69 1609C4376.36 1608.73 4372.56 1610.2 4368.29 1613.4C4364.03 1616.6 4359.89 1621.47 4355.89 1628C4351.89 1634.4 4348.43 1642.33 4345.49 1651.8C4342.69 1661.13 4341.03 1671.87 4340.49 1684C4340.36 1687.47 4339.36 1689.93 4337.49 1691.4C4335.63 1692.87 4332.43 1693.33 4327.89 1692.8L4331.89 1609.8C4331.63 1609.67 4331.23 1609.67 4330.69 1609.8C4330.16 1609.8 4329.36 1610.13 4328.29 1610.8C4322.96 1613.6 4318.43 1613.07 4314.69 1609.2ZM4531.3 1631.4C4533.17 1622.6 4533.3 1615.4 4531.7 1609.8C4531.17 1609.4 4530.3 1609.13 4529.1 1609C4527.9 1608.87 4526.77 1608.53 4525.7 1608C4524.77 1607.33 4524.37 1606.33 4524.5 1605C4524.63 1603.67 4525.17 1602.47 4526.1 1601.4C4527.43 1599.8 4529.37 1598.47 4531.9 1597.4C4534.43 1596.33 4536.77 1595.87 4538.9 1596C4541.17 1596 4542.57 1597 4543.1 1599C4543.9 1601.67 4544.37 1605.13 4544.5 1609.4C4544.77 1613.67 4544.83 1618.2 4544.7 1623C4544.57 1627.67 4544.23 1632.13 4543.7 1636.4C4542.37 1646.53 4540.5 1656.53 4538.1 1666.4C4535.7 1676.27 4531.97 1686.13 4526.9 1696C4521.3 1706.93 4514.77 1716.07 4507.3 1723.4C4499.83 1730.73 4491.37 1734.73 4481.9 1735.4C4476.3 1735.8 4471.03 1734.8 4466.1 1732.4C4461.17 1730 4457.9 1726.73 4456.3 1722.6C4455.63 1720.73 4455.7 1719 4456.5 1717.4C4457.43 1715.8 4458.97 1714.4 4461.1 1713.2C4463.37 1712 4465.57 1711.47 4467.7 1711.6C4469.83 1711.73 4471.17 1712.53 4471.7 1714C4471.97 1714.8 4472.03 1715.67 4471.9 1716.6C4471.77 1717.53 4471.57 1718.4 4471.3 1719.2C4471.57 1721.47 4472.77 1723.4 4474.9 1725C4477.03 1726.73 4480.03 1727.47 4483.9 1727.2C4487.9 1726.93 4491.7 1725.4 4495.3 1722.6C4499.03 1719.93 4502.43 1716.53 4505.5 1712.4C4508.7 1708.4 4511.5 1704.27 4513.9 1700C4517.77 1693.2 4521.03 1686.13 4523.7 1678.8C4526.37 1671.47 4528.17 1665.33 4529.1 1660.4L4528.3 1659.8C4526.83 1663.4 4524.57 1667.47 4521.5 1672C4518.57 1676.4 4515.37 1680.6 4511.9 1684.6C4508.43 1688.6 4505.17 1691.8 4502.1 1694.2C4501.03 1695.13 4499.77 1695.47 4498.3 1695.2C4496.83 1694.93 4495.97 1694.33 4495.7 1693.4L4468.9 1613.6C4468.63 1613.6 4468.23 1613.73 4467.7 1614C4467.3 1614.13 4466.7 1614.73 4465.9 1615.8C4464.83 1617 4463.3 1618 4461.3 1618.8C4459.43 1619.47 4457.3 1619.13 4454.9 1617.8C4456.37 1615.8 4458.17 1613.4 4460.3 1610.6C4462.43 1607.8 4464.5 1605.27 4466.5 1603C4468.5 1600.6 4469.9 1599 4470.7 1598.2C4472.17 1596.73 4473.57 1596.27 4474.9 1596.8C4476.37 1597.2 4477.37 1598.13 4477.9 1599.6L4504.1 1682.4C4508.37 1678 4512.3 1672.93 4515.9 1667.2C4519.63 1661.47 4522.83 1655.53 4525.5 1649.4C4528.3 1643.13 4530.23 1637.13 4531.3 1631.4ZM4605.62 1694.4C4597.75 1694.4 4590.55 1692.33 4584.02 1688.2C4577.62 1683.93 4572.68 1678 4569.22 1670.4C4565.75 1662.8 4564.42 1654.07 4565.22 1644.2C4566.15 1634.33 4568.82 1625.67 4573.22 1618.2C4577.75 1610.73 4583.55 1604.93 4590.62 1600.8C4597.68 1596.53 4605.48 1594.4 4614.02 1594.4C4621.88 1594.4 4629.02 1596.53 4635.42 1600.8C4641.95 1604.93 4647.02 1610.73 4650.62 1618.2C4654.35 1625.67 4655.75 1634.33 4654.82 1644.2C4654.02 1654.07 4651.28 1662.8 4646.62 1670.4C4642.08 1678 4636.22 1683.93 4629.02 1688.2C4621.95 1692.33 4614.15 1694.4 4605.62 1694.4ZM4579.02 1644.2C4578.75 1651.93 4579.75 1659.07 4582.02 1665.6C4584.42 1672 4587.82 1677.13 4592.22 1681C4596.75 1684.73 4602.02 1686.6 4608.02 1686.6C4614.02 1686.6 4619.42 1684.73 4624.22 1681C4629.02 1677.13 4632.88 1672 4635.82 1665.6C4638.88 1659.07 4640.55 1651.93 4640.82 1644.2C4641.22 1636.47 4640.22 1629.47 4637.82 1623.2C4635.42 1616.8 4632.02 1611.73 4627.62 1608C4623.22 1604.13 4618.02 1602.2 4612.02 1602.2C4606.02 1602.2 4600.55 1604.13 4595.62 1608C4590.82 1611.73 4586.95 1616.8 4584.02 1623.2C4581.08 1629.47 4579.42 1636.47 4579.02 1644.2ZM4700.47 1695.2C4697.27 1695.2 4693.94 1694.47 4690.47 1693C4687 1691.53 4684.14 1689 4681.87 1685.4C4679.74 1681.8 4678.87 1676.8 4679.27 1670.4L4682.67 1611.4C4682.54 1611.27 4682.2 1611.27 4681.67 1611.4C4681.14 1611.4 4680.2 1611.73 4678.87 1612.4C4673.54 1615.2 4669.14 1614.67 4665.67 1610.8C4667.94 1609.33 4670.67 1607.53 4673.87 1605.4C4677.07 1603.13 4680.07 1601.07 4682.87 1599.2C4685.67 1597.33 4687.54 1596.27 4688.47 1596C4690.34 1595.33 4691.94 1595.4 4693.27 1596.2C4694.74 1596.87 4695.4 1598.07 4695.27 1599.8L4691.47 1670.2C4691.34 1673.93 4692.47 1677.13 4694.87 1679.8C4697.27 1682.47 4700.8 1683.87 4705.47 1684C4711.34 1684.13 4717.4 1681.47 4723.67 1676C4730.07 1670.53 4735.14 1661.93 4738.87 1650.2C4739.54 1647.93 4740.14 1645 4740.67 1641.4C4741.2 1637.67 4741.54 1634.4 4741.67 1631.6L4743.07 1606.4C4743.34 1602.13 4744.34 1599.07 4746.07 1597.2C4747.94 1595.33 4751.14 1594.67 4755.67 1595.2L4752.47 1677.2C4752.34 1678.8 4752.54 1680.33 4753.07 1681.8C4753.74 1683.13 4755.14 1683.8 4757.27 1683.8C4758.6 1683.8 4760.34 1683.2 4762.47 1682C4764.6 1680.8 4766.47 1679.13 4768.07 1677C4768.74 1676.07 4769.54 1675.73 4770.47 1676C4771.4 1676.27 4771.74 1677.07 4771.47 1678.4C4770.67 1682.53 4768.4 1686.4 4764.67 1690C4761.07 1693.47 4756.8 1695.2 4751.87 1695.2C4747.87 1695.2 4744.87 1693.93 4742.87 1691.4C4740.87 1688.73 4739.94 1685.8 4740.07 1682.6L4740.67 1661C4738.54 1667.13 4735.4 1672.8 4731.27 1678C4727.27 1683.2 4722.6 1687.4 4717.27 1690.6C4712.07 1693.67 4706.47 1695.2 4700.47 1695.2Z" fill="white"/>
</svg>
