<svg width="148" height="41" viewBox="0 0 148 41" fill="none" xmlns="http://www.w3.org/2000/svg">
<path d="M9.20992 17.1797H0V39.7348H6.57852V23.1944C9.13474 22.8936 9.64849 23.9462 9.58584 24.5101C9.58584 25.2619 8.33279 25.5752 7.70626 25.6378V31.6525C10.4129 31.3518 10.8389 32.4044 10.7136 32.9682C10.7136 33.8704 8.7087 33.9707 7.70626 33.908V39.7348C14.9238 40.1859 16.6029 35.7876 16.5403 33.5321C16.6906 30.3744 14.3474 28.2066 13.157 27.5174C15.2622 25.8634 15.5378 23.445 15.4125 22.4425C15.4125 18.533 11.2775 17.305 9.20992 17.1797Z" fill="#20703D"/>
<path d="M35.7878 32.5261C36.0885 25.3085 30.525 23.1281 27.7056 22.9402C20.488 22.7898 18.6836 29.0175 18.6836 32.1502C18.6836 36.3604 22.4427 39.042 24.3223 39.8565C27.6304 41.2098 31.3394 39.4179 32.7804 38.3528L29.3972 34.0298C28.9461 34.932 27.8309 35.0322 27.3296 34.9695C25.6756 34.9695 25.1369 32.714 25.0742 31.5863C24.7735 28.5789 26.7032 27.8271 27.7056 27.8271C29.2092 27.8271 29.7105 29.0802 29.7732 29.7067H26.5778C25.9764 30.4585 26.3272 31.8996 26.5778 32.5261H35.7878Z" fill="#20703D"/>
<path d="M44.1401 17.1719H37.9375V31.8327C37.9375 38.5992 44.0774 40.2908 47.1474 40.2908V33.7123C46.3956 33.7123 45.5811 33.4617 45.2678 33.3363C44.3656 33.0356 44.1401 31.2061 44.1401 30.329H46.9595V23.7504H44.1401V17.1719Z" fill="#20703D"/>
<path d="M56.7573 17.1719H50.5547V31.8327C50.5547 38.5992 56.6946 40.2908 59.7646 40.2908V33.7123C59.0128 33.7123 58.1983 33.4617 57.885 33.3363C56.9828 33.0356 56.7573 31.2061 56.7573 30.329H59.5767V23.7504H56.7573V17.1719Z" fill="#20703D"/>
<path d="M81.4235 30.5338V39.7438H87.4382V31.6616C87.4382 28.5039 89.3178 28.9675 90.2575 29.594V23.0155C83.04 21.8125 81.3609 27.5265 81.4235 30.5338Z" fill="#20703D"/>
<path d="M99.3862 23.7578H93.1836V39.5464H99.3862V23.7578Z" fill="#20703D"/>
<path d="M99.1982 19.437C99.0479 17.1815 97.1307 16.4923 96.1909 16.4297C93.7851 16.5801 93.1836 18.4972 93.1836 19.437C93.1836 21.8429 95.1885 22.4444 96.1909 22.4444C98.5968 22.4444 99.1982 20.4395 99.1982 19.437Z" fill="#20703D"/>
<path d="M102.117 29.4513V39.5102L109.537 39.5102V29.7982C109.866 28.5744 111.736 28.6326 112.039 29.7982V39.5102L119.432 39.5102V29.4513C118.679 22.9304 113.472 21.5314 110.963 21.6471C104.037 21.5083 102.18 26.7921 102.117 29.4513Z" fill="#20703D"/>
<path d="M129.593 21.5312H122.777V33.01C122.921 39.0364 128.457 40.4234 131.207 40.3636C137.09 40.5071 139.039 35.521 139.278 33.01V21.5312H132.104V32.2926C132.247 33.7274 131.327 34.0861 130.848 34.0861C129.844 34.0861 129.593 32.8904 129.593 32.2926V21.5312Z" fill="#20703D"/>
<path d="M129.044 3.8764C125.104 4.55183 122.947 7.11285 122.36 8.30892V5.21319C122.29 4.8614 122.008 4.8614 121.938 4.8614C121.657 4.8614 121.586 5.09593 121.586 5.21319V8.66071H121.164C120.939 8.66071 120.789 8.94214 120.742 9.08286C120.719 10.7949 120.686 14.3315 120.742 14.7818C120.798 15.2321 121.094 15.3916 121.235 15.415H122.008C122.234 16.2593 123.556 17.5961 124.19 18.159C125.372 19.0596 129.842 19.2378 131.929 19.2143C134.687 19.2143 136.877 18.5108 137.628 18.159C138.979 17.371 139.692 16.0014 139.879 15.415C140.184 15.4385 140.822 15.4573 140.935 15.3447C141.047 15.2321 141.075 14.9694 141.075 14.8522V9.15322L140.935 8.73107H140.231V5.28355C140.231 4.88955 139.997 4.79105 139.879 4.79105C139.598 4.79105 139.527 5.11938 139.527 5.28355V8.30892C138.458 5.71977 134.626 4.27509 132.844 3.8764L132.492 3.59497H131.225V1.69531H130.662V3.59497H129.396L129.044 3.8764Z" fill="#20703D"/>
<path d="M129.186 6.82555C125.246 6.76927 123.464 8.86592 123.065 9.92129C122.666 10.9767 122.713 11.8913 122.713 11.8913C122.601 13.2984 123.042 14.3538 123.276 14.7056C124.177 16.7319 127.451 17.2385 128.975 17.2385H133.619C136.433 17.1822 138.028 15.7141 138.473 14.987C139.374 13.9176 139.177 11.4926 138.966 10.4138C138.234 7.82462 135.472 6.94281 134.182 6.82555C132.892 6.70829 129.186 6.82555 129.186 6.82555Z" stroke="white" stroke-width="0.227957"/>
<path d="M129.371 7.23585C125.629 7.18363 123.937 9.12889 123.558 10.108C123.18 11.0872 123.224 11.9358 123.224 11.9358C123.117 13.2413 123.536 14.2205 123.759 14.5469C124.614 16.4269 127.723 16.8969 129.17 16.8969H133.58C136.252 16.8446 137.766 15.4825 138.189 14.808C139.045 13.8158 138.858 11.5659 138.657 10.565C137.962 8.16278 135.339 7.34464 134.114 7.23585C132.889 7.12706 129.371 7.23585 129.371 7.23585Z" fill="white"/>
<path d="M119.547 11.7438C119.547 10.5055 120.204 9.58613 120.532 9.28125L120.462 14.5581C119.73 13.8264 119.547 12.377 119.547 11.7438Z" fill="#20703D"/>
<path d="M142.203 11.7438C142.203 10.5055 141.546 9.58613 141.218 9.28125L141.288 14.5581C142.02 13.8264 142.203 12.377 142.203 11.7438Z" fill="#20703D"/>
<circle cx="130.942" cy="0.985007" r="0.985007" fill="#20703D"/>
<circle cx="128.406" cy="11.8318" r="1.37083" fill="#20703D"/>
<circle cx="133.64" cy="11.8318" r="1.37083" fill="#20703D"/>
<ellipse cx="1.78793" cy="4.83092" rx="1.78793" ry="4.83092" transform="matrix(0.67132 -0.741167 -0.741167 -0.67132 120.668 23.3203)" fill="#20703D"/>
<ellipse cx="1.78793" cy="4.83092" rx="1.78793" ry="4.83092" transform="matrix(-0.907882 0.419226 0.419226 0.907882 142.082 20.6797)" fill="#20703D"/>
<path d="M146.257 33.9792C146.518 34.1554 146.88 34.0876 146.986 33.7914C147.055 33.5962 147.098 33.3916 147.113 33.183C147.14 32.784 147.062 32.3847 146.885 32.0258C146.709 31.6668 146.441 31.3608 146.108 31.1387C145.775 30.9167 145.39 30.7865 144.991 30.7614C144.592 30.7362 144.193 30.817 143.835 30.9955C143.477 31.174 143.173 31.4439 142.952 31.7779C142.732 32.1119 142.604 32.4981 142.582 32.8975C142.57 33.1062 142.587 33.3146 142.631 33.517C142.699 33.8241 143.05 33.9368 143.331 33.7948C143.611 33.6528 143.707 33.3016 143.718 32.9872C143.718 32.979 143.718 32.9707 143.719 32.9625C143.73 32.7635 143.794 32.5711 143.904 32.4047C144.013 32.2383 144.165 32.1039 144.343 32.0149C144.522 31.926 144.72 31.8858 144.919 31.8983C145.118 31.9108 145.31 31.9757 145.476 32.0863C145.642 32.1969 145.775 32.3494 145.863 32.5282C145.951 32.707 145.99 32.9059 145.976 33.1047C145.976 33.113 145.975 33.1212 145.974 33.1294C145.946 33.4427 145.996 33.8031 146.257 33.9792Z" fill="#20703D"/>
<path d="M112.28 11.6838C111.997 11.5472 111.648 11.6667 111.586 11.9751C111.546 12.1783 111.533 12.387 111.549 12.5954C111.579 12.9942 111.714 13.3779 111.941 13.7076C112.167 14.0373 112.477 14.3014 112.838 14.473C113.199 14.6446 113.6 14.7177 113.998 14.6848C114.397 14.652 114.78 14.5145 115.108 14.2861C115.437 14.0577 115.699 13.7466 115.868 13.3843C116.038 13.022 116.109 12.6214 116.073 12.2229C116.055 12.0147 116.008 11.8109 115.935 11.6171C115.823 11.323 115.46 11.2622 115.203 11.4433C114.945 11.6244 114.902 11.9857 114.936 12.2984C114.937 12.3066 114.938 12.3148 114.939 12.323C114.956 12.5215 114.921 12.7211 114.836 12.9016C114.752 13.0821 114.621 13.2371 114.458 13.3509C114.294 13.4646 114.103 13.5332 113.905 13.5495C113.706 13.5659 113.507 13.5294 113.327 13.444C113.147 13.3585 112.993 13.2269 112.88 13.0627C112.767 12.8984 112.7 12.7073 112.684 12.5086C112.684 12.5003 112.683 12.4921 112.683 12.4839C112.666 12.1697 112.564 11.8205 112.28 11.6838Z" fill="#20703D"/>
<path d="M79.1349 32.4765C79.1349 24.8078 73.4962 22.8906 70.6768 22.8906C65.414 22.8906 62.8452 27.151 62.2187 29.2812C61.1661 32.2886 62.532 35.2959 63.3464 36.4237C65.1508 39.2806 68.3587 40.2455 69.737 40.3708C71.9925 40.6715 74.9372 39.1178 76.1276 38.3033L72.5564 33.9802C71.8045 34.732 70.9901 34.92 70.6768 34.92C69.0228 34.92 68.3587 32.7898 68.2334 31.7247C67.7823 28.567 69.6744 27.7776 70.6768 27.7776C72.1804 27.7776 72.807 29.0306 72.9323 29.6571H69.737C69.1356 30.409 69.4864 31.85 69.737 32.4765H79.1349Z" fill="#20703D"/>
</svg>
